<svg xmlns="http://www.w3.org/2000/svg" xmlns:xlink="http://www.w3.org/1999/xlink" width="21" height="21" viewBox="0 0 21 21" fill="none"><g opacity="1" transform="translate(0.035400390625 0.03533935546875)  rotate(0 10 10)"><g opacity="1" transform="translate(9.43365478515625 5.39764404296875)  rotate(0 0.8142242431640625 5.033126831054716)"><path id="路径 53" fill-rule="evenodd" style="fill:#FF5757" transform="translate(0.235595703125 2.816741943359432)  rotate(0 0.5786285400390909 3.624755859375)" opacity="1" d="M1.16 0.58L1.16 6.67C1.16 6.99 0.9 7.25 0.58 7.25C0.26 7.25 0 6.99 0 6.67L0 0.58C0 0.26 0.26 0 0.58 0C0.9 0 1.16 0.26 1.16 0.58Z" /><path id="路径 54" fill-rule="evenodd" style="fill:#FF5757" transform="translate(0 0)  rotate(0 0.8142242431640625 0.8142242431640625)" opacity="1" d="M0.81 0C1.26 0 1.63 0.36 1.63 0.81C1.63 1.26 1.26 1.63 0.81 1.63C0.36 1.63 0 1.26 0 0.81C0 0.36 0.36 0 0.81 0Z" /></g><g opacity="1" transform="translate(0 0)  rotate(0 10 10)"><g opacity="0" transform="translate(0 0)  rotate(0 10 10)"><path id="Rectangle" fill-rule="evenodd" style="fill:#EBEBEB" transform="translate(0 0)  rotate(0 10 10)" opacity="1" d="M0,20L20,20L20,0L0,0L0,20Z " /><rect  id="Rectangle 2" style="stroke:#50E3C2; stroke-width:0.10000000149011612; stroke-opacity:1; stroke-dasharray:0 0" transform="translate(2.222222328186035 2.222222328186035)  rotate(0 7.777777671813965 7.777777671813965)" x="0.05000000074505806" y="0.05000000074505806" rx="0"  width="15.455555342137814" height="15.455555342137814" /><rect  id="Rectangle 2" style="stroke:#50E3C2; stroke-width:0.10000000149011612; stroke-opacity:1; stroke-dasharray:0 0" transform="translate(1.1111111640930176 1.1111111640930176)  rotate(0 8.88888931274414 8.88888931274414)" x="0.05000000074505806" y="0.05000000074505806" rx="7.949999999254942"  width="17.677778623998165" height="17.677778623998165" /><rect  id="Rectangle 3" style="stroke:#50E3C2; stroke-width:0.10000000149011612; stroke-opacity:1; stroke-dasharray:0 0" transform="translate(3.3333334922790527 1.1111111640930176)  rotate(0 6.6666669845581055 8.88888931274414)" x="0.05000000074505806" y="0.05000000074505806" rx="0"  width="13.233333967626095" height="17.677778623998165" /><rect  id="Rectangle 4" style="stroke:#50E3C2; stroke-width:0.10000000149011612; stroke-opacity:1; stroke-dasharray:0 0" transform="translate(1.1111111640930176 3.3333334922790527)  rotate(0 8.88888931274414 6.6666669845581055)" x="0.05000000074505806" y="0.05000000074505806" rx="0"  width="17.677778623998165" height="13.233333967626095" /><path  id="Rectangle 5" style="stroke:#50E3C2; stroke-width:0.10000000149011612; stroke-opacity:1; stroke-dasharray:0 0" transform="translate(10.000000536441803 0)  rotate(0 0 10)" d="M0,0L0,20 " /><path  id="Rectangle 6" style="stroke:#50E3C2; stroke-width:0.10000000149011612; stroke-opacity:1; stroke-dasharray:0 0" transform="translate(0 10.000000536441803)  rotate(0 10 0)" d="M0,0L20,0 " /><rect  id="Rectangle 8" style="stroke:#50E3C2; stroke-width:0.10000000149011612; stroke-opacity:1; stroke-dasharray:0 0" transform="translate(4.44444465637207 4.44444465637207)  rotate(0 5.555555820465088 5.555555820465088)" x="0.05000000074505806" y="0.05000000074505806" rx="0"  width="11.01111163944006" height="11.01111163944006" /><path  id="Path 3" style="stroke:#50E3C2; stroke-width:0.10000000149011612; stroke-opacity:1; stroke-dasharray:0 0" transform="translate(0 0)  rotate(0 10 10)" d="M0,0L20,20 " /><path  id="Path 4" style="stroke:#50E3C2; stroke-width:0.10000000149011612; stroke-opacity:1; stroke-dasharray:0 0" transform="translate(0 0)  rotate(0 10 10)" d="M0,20L20,0 " /></g><path id="路径 52" fill-rule="evenodd" style="fill:#FF5757" transform="translate(0.7499237060546875 0.9999847412109375)  rotate(0 9.24789047241211 9.247894287109375)" opacity="1" d="M9.25 18.5Z M5.65 0.73C4.55 1.19 3.56 1.86 2.71 2.71C1.86 3.56 1.19 4.55 0.73 5.65C0.24 6.79 0 8 0 9.25C0 10.5 0.25 11.71 0.73 12.85C1.19 13.95 1.86 14.94 2.71 15.79C3.56 16.64 4.55 17.3 5.65 17.77C6.79 18.25 8 18.5 9.25 18.5C10.5 18.5 11.71 18.25 12.85 17.77C13.95 17.3 14.94 16.64 15.79 15.79C16.64 14.94 17.3 13.95 17.77 12.85C18.25 11.71 18.5 10.5 18.5 9.25C18.5 8 18.25 6.79 17.77 5.65C17.3 4.55 16.64 3.56 15.79 2.71C14.94 1.86 13.95 1.19 12.85 0.73C11.71 0.24 10.5 0 9.25 0C8 0 6.79 0.25 5.65 0.73Z M9.2452 1.15728Z M6.0952 1.79728C5.1352 2.19728 4.2652 2.78728 3.5252 3.52728C2.7852 4.26728 2.1952 5.13728 1.7952 6.09728C1.3652 7.09728 1.1552 8.15728 1.1552 9.24728C1.1552 10.3473 1.3652 11.3973 1.7952 12.3973C2.1952 13.3673 2.7852 14.2273 3.5252 14.9773C4.2652 15.7173 5.1352 16.2973 6.0952 16.7073C7.0952 17.1273 8.1552 17.3473 9.2452 17.3473C10.3452 17.3473 11.3952 17.1273 12.3952 16.7073C13.3652 16.2973 14.2252 15.7173 14.9752 14.9773C15.7152 14.2273 16.2952 13.3673 16.7052 12.3973C17.1252 11.4073 17.3452 10.3473 17.3452 9.24728C17.3452 8.15728 17.1252 7.09728 16.7052 6.09728C16.2952 5.13728 15.7152 4.26728 14.9652 3.52728C14.2252 2.77728 13.3652 2.19728 12.3952 1.78728C11.3952 1.36728 10.3352 1.15728 9.2452 1.15728C8.1552 1.15728 7.0952 1.36728 6.0952 1.79728Z " /></g></g></svg>